<?xml version="1.0" encoding="iso-8859-1"?>
<!-- Generator: Adobe Illustrator 19.0.0, SVG Export Plug-In . SVG Version: 6.00 Build 0)  -->
<svg version="1.1" id="Layer_1" xmlns="http://www.w3.org/2000/svg" xmlns:xlink="http://www.w3.org/1999/xlink" x="0px" y="0px"
	 viewBox="0 0 511.999 511.999" style="enable-background:new 0 0 511.999 511.999;" xml:space="preserve">
<path style="fill:#EC589B;" d="M343.118,422.127l37.608,21.091l-24.357,43.433l45.202,25.349l24.357-43.433l43.433,24.357
	l25.349-45.202l-43.433-24.357l24.357-43.434l-45.202-25.349l-24.357,43.434l-37.608-21.091
	c29.238-77.744-1.902-167.562-76.524-209.408c-82.303-46.155-186.812-16.745-232.967,65.56
	C12.82,315.379,42.23,419.888,124.534,466.043C199.157,507.889,292.032,487.618,343.118,422.127z M104.178,258.424
	c32.177-57.38,105.037-77.883,162.416-45.706s77.883,105.037,45.705,162.416c-32.177,57.379-105.038,77.882-162.416,45.705
	C92.504,388.663,72,315.803,104.178,258.424z"/>
<path style="fill:#F7C957;" d="M265.909,102.895c-1.096,1.668-2.764,2.958-4.843,3.541c-0.777,0.228-1.553,0.331-2.319,0.331
	c-3.746,0-7.184-2.478-8.246-6.247l-3.175-11.284l-11.284,3.175c-0.777,0.217-1.553,0.32-2.33,0.32
	c-3.735,0-7.173-2.467-8.235-6.247c-1.279-4.557,1.371-9.286,5.928-10.565l11.284-3.175l-3.175-11.284
	c-1.279-4.557,1.371-9.286,5.928-10.576c2.067-0.582,4.169-0.343,5.973,0.514L236.944,0l-38.17,74.924l-71.658-44.018l-38.17,74.924
	l-26.943-16.55L17.289,61.812l14.471,51.396c1.096-1.668,2.764-2.97,4.831-3.552c4.557-1.279,9.286,1.371,10.565,5.928l3.175,11.284
	l11.284-3.175c4.557-1.279,9.286,1.371,10.576,5.928c1.279,4.546-1.382,9.286-5.928,10.565l-11.284,3.175l3.175,11.284
	c1.279,4.557-1.371,9.286-5.928,10.565c-0.777,0.217-1.553,0.32-2.33,0.32c-1.279,0-2.524-0.308-3.655-0.845l11.627,41.322
	l34.275-9.64l185.38-52.173L265.909,102.895z M170.677,110.799l-11.284,3.175l3.175,11.284c1.291,4.557-1.371,9.286-5.916,10.565
	c-0.777,0.217-1.565,0.32-2.33,0.32c-3.746,0-7.173-2.467-8.246-6.247l-3.175-11.284l-11.284,3.175
	c-0.777,0.228-1.553,0.331-2.319,0.331c-3.746,0-7.184-2.478-8.246-6.247c-1.279-4.557,1.371-9.286,5.928-10.565l11.284-3.187
	l-3.175-11.284c-1.279-4.546,1.371-9.286,5.928-10.565s9.286,1.371,10.565,5.928l3.175,11.284l11.284-3.175
	c4.557-1.279,9.286,1.371,10.565,5.928C177.884,104.791,175.234,109.519,170.677,110.799z"/>
<path style="fill:#D5A03C;" d="M92.144,196.367l-34.275,9.64l-11.627-41.322c1.131,0.537,2.376,0.845,3.655,0.845
	c0.777,0,1.553-0.103,2.33-0.32c4.557-1.279,7.207-6.008,5.928-10.565l-3.175-11.284l11.284-3.175
	c4.546-1.279,7.207-6.019,5.928-10.565c-1.291-4.557-6.019-7.207-10.576-5.928l-11.284,3.175l-3.175-11.284
	c-1.279-4.557-6.008-7.207-10.565-5.928c-2.067,0.582-3.735,1.885-4.831,3.552L17.289,61.812l44.715,27.468L92.144,196.367z"/>
<g>
</g>
<g>
</g>
<g>
</g>
<g>
</g>
<g>
</g>
<g>
</g>
<g>
</g>
<g>
</g>
<g>
</g>
<g>
</g>
<g>
</g>
<g>
</g>
<g>
</g>
<g>
</g>
<g>
</g>
</svg>
